<svg width="51" height="55" viewBox="0 0 51 55" fill="none" xmlns="http://www.w3.org/2000/svg">
<g filter="url(#filter0_d)">
<circle cx="21.5" cy="17.5" r="17" stroke="#236295"/>
<path d="M8.57876 23.75L18.5 7.94064L28.4212 23.75H8.57876Z" stroke="#236295"/>
<path d="M22.7062 23L27.5 14.0582L32.2938 23H22.7062Z" stroke="#236295"/>
<g filter="url(#filter1_d)">
<ellipse cx="21.5" cy="42.5" rx="4.5" ry="1.5" fill="#236295"/>
</g>
<g filter="url(#filter2_d)">
<path d="M32.5 42.5C32.5 42.927 32.271 43.3936 31.7253 43.8775C31.1801 44.3608 30.3627 44.8189 29.3097 45.2138C27.2074 46.0022 24.2696 46.5 21 46.5C17.7304 46.5 14.7926 46.0022 12.6903 45.2138C11.6373 44.8189 10.8199 44.3608 10.2747 43.8775C9.72897 43.3936 9.5 42.927 9.5 42.5C9.5 42.073 9.72897 41.6064 10.2747 41.1225C10.8199 40.6392 11.6373 40.1811 12.6903 39.7862C14.7926 38.9978 17.7304 38.5 21 38.5C24.2696 38.5 27.2074 38.9978 29.3097 39.7862C30.3627 40.1811 31.1801 40.6392 31.7253 41.1225C32.271 41.6064 32.5 42.073 32.5 42.5Z" stroke="#236295"/>
</g>
</g>
<defs>
<filter id="filter0_d" x="0" y="0" width="55" height="58" filterUnits="userSpaceOnUse" color-interpolation-filters="sRGB">
<feFlood flood-opacity="0" result="BackgroundImageFix"/>
<feColorMatrix in="SourceAlpha" type="matrix" values="0 0 0 0 0 0 0 0 0 0 0 0 0 0 0 0 0 0 127 0"/>
<feOffset dy="4"/>
<feGaussianBlur stdDeviation="2"/>
<feColorMatrix type="matrix" values="0 0 0 0 0 0 0 0 0 0 0 0 0 0 0 0 0 0 0.25 0"/>
<feBlend mode="normal" in2="BackgroundImageFix" result="effect1_dropShadow"/>
<feBlend mode="normal" in="SourceGraphic" in2="effect1_dropShadow" result="shape"/>
</filter>
<filter id="filter1_d" x="13" y="41" width="17" height="11" filterUnits="userSpaceOnUse" color-interpolation-filters="sRGB">
<feFlood flood-opacity="0" result="BackgroundImageFix"/>
<feColorMatrix in="SourceAlpha" type="matrix" values="0 0 0 0 0 0 0 0 0 0 0 0 0 0 0 0 0 0 127 0"/>
<feOffset dy="4"/>
<feGaussianBlur stdDeviation="2"/>
<feColorMatrix type="matrix" values="0 0 0 0 0 0 0 0 0 0 0 0 0 0 0 0 0 0 0.25 0"/>
<feBlend mode="normal" in2="BackgroundImageFix" result="effect1_dropShadow"/>
<feBlend mode="normal" in="SourceGraphic" in2="effect1_dropShadow" result="shape"/>
</filter>
<filter id="filter2_d" x="5" y="38" width="32" height="17" filterUnits="userSpaceOnUse" color-interpolation-filters="sRGB">
<feFlood flood-opacity="0" result="BackgroundImageFix"/>
<feColorMatrix in="SourceAlpha" type="matrix" values="0 0 0 0 0 0 0 0 0 0 0 0 0 0 0 0 0 0 127 0"/>
<feOffset dy="4"/>
<feGaussianBlur stdDeviation="2"/>
<feColorMatrix type="matrix" values="0 0 0 0 0 0 0 0 0 0 0 0 0 0 0 0 0 0 0.25 0"/>
<feBlend mode="normal" in2="BackgroundImageFix" result="effect1_dropShadow"/>
<feBlend mode="normal" in="SourceGraphic" in2="effect1_dropShadow" result="shape"/>
</filter>
</defs>
</svg>
