<svg width="51" height="55" viewBox="0 0 51 55" fill="none" xmlns="http://www.w3.org/2000/svg">
<g filter="url(#filter0_d)">
<circle cx="21.5" cy="17.5" r="16.75" stroke="#FFA200" stroke-width="1.5"/>
<path d="M9.0308 23.5L18.5 8.41096L27.9692 23.5H9.0308Z" stroke="#FFA200" stroke-width="1.5"/>
<path d="M23.1239 22.75L27.5 14.5873L31.8761 22.75H23.1239Z" stroke="#FFA200" stroke-width="1.5"/>
<g filter="url(#filter1_d)">
<ellipse cx="21.5" cy="42.5" rx="4.5" ry="1.5" fill="#FFA200"/>
</g>
<g filter="url(#filter2_d)">
<path d="M32.25 42.5C32.25 42.8298 32.0744 43.2338 31.5594 43.6904C31.0453 44.1462 30.2585 44.591 29.2219 44.9797C27.1543 45.7551 24.2476 46.25 21 46.25C17.7524 46.25 14.8457 45.7551 12.7781 44.9797C11.7415 44.591 10.9547 44.1462 10.4406 43.6904C9.92556 43.2338 9.75 42.8298 9.75 42.5C9.75 42.1702 9.92556 41.7662 10.4406 41.3096C10.9547 40.8538 11.7415 40.409 12.7781 40.0203C14.8457 39.2449 17.7524 38.75 21 38.75C24.2476 38.75 27.1543 39.2449 29.2219 40.0203C30.2585 40.409 31.0453 40.8538 31.5594 41.3096C32.0744 41.7662 32.25 42.1702 32.25 42.5Z" stroke="#FFA200" stroke-width="1.5"/>
</g>
</g>
<defs>
<filter id="filter0_d" x="0" y="0" width="55" height="58" filterUnits="userSpaceOnUse" color-interpolation-filters="sRGB">
<feFlood flood-opacity="0" result="BackgroundImageFix"/>
<feColorMatrix in="SourceAlpha" type="matrix" values="0 0 0 0 0 0 0 0 0 0 0 0 0 0 0 0 0 0 127 0"/>
<feOffset dy="4"/>
<feGaussianBlur stdDeviation="2"/>
<feColorMatrix type="matrix" values="0 0 0 0 0 0 0 0 0 0 0 0 0 0 0 0 0 0 0.12 0"/>
<feBlend mode="normal" in2="BackgroundImageFix" result="effect1_dropShadow"/>
<feBlend mode="normal" in="SourceGraphic" in2="effect1_dropShadow" result="shape"/>
</filter>
<filter id="filter1_d" x="13" y="41" width="17" height="11" filterUnits="userSpaceOnUse" color-interpolation-filters="sRGB">
<feFlood flood-opacity="0" result="BackgroundImageFix"/>
<feColorMatrix in="SourceAlpha" type="matrix" values="0 0 0 0 0 0 0 0 0 0 0 0 0 0 0 0 0 0 127 0"/>
<feOffset dy="4"/>
<feGaussianBlur stdDeviation="2"/>
<feColorMatrix type="matrix" values="0 0 0 0 0 0 0 0 0 0 0 0 0 0 0 0 0 0 0.25 0"/>
<feBlend mode="normal" in2="BackgroundImageFix" result="effect1_dropShadow"/>
<feBlend mode="normal" in="SourceGraphic" in2="effect1_dropShadow" result="shape"/>
</filter>
<filter id="filter2_d" x="5" y="38" width="32" height="17" filterUnits="userSpaceOnUse" color-interpolation-filters="sRGB">
<feFlood flood-opacity="0" result="BackgroundImageFix"/>
<feColorMatrix in="SourceAlpha" type="matrix" values="0 0 0 0 0 0 0 0 0 0 0 0 0 0 0 0 0 0 127 0"/>
<feOffset dy="4"/>
<feGaussianBlur stdDeviation="2"/>
<feColorMatrix type="matrix" values="0 0 0 0 0 0 0 0 0 0 0 0 0 0 0 0 0 0 0.25 0"/>
<feBlend mode="normal" in2="BackgroundImageFix" result="effect1_dropShadow"/>
<feBlend mode="normal" in="SourceGraphic" in2="effect1_dropShadow" result="shape"/>
</filter>
</defs>
</svg>
